<svg width="37" height="37" viewBox="0 0 37 37" fill="none" xmlns="http://www.w3.org/2000/svg">
<path fill-rule="evenodd" clip-rule="evenodd" d="M31.3788 18.2554C31.3242 18.2008 31.2647 18.155 31.2085 18.102C31.2639 18.0489 31.3242 18.0031 31.3788 17.9485L33.2573 16.07C36.9276 12.3998 36.9276 6.44852 33.2573 2.7783C29.5871 -0.891921 23.6358 -0.891921 19.9656 2.7783L18.0871 4.6568C18.0598 4.68412 18.0373 4.71465 18.01 4.74197C17.9827 4.71465 17.9602 4.68412 17.9329 4.6568L16.0544 2.7783C12.3841 -0.891921 6.43288 -0.891921 2.76266 2.7783C-0.907561 6.44852 -0.907561 12.3998 2.76266 16.07L4.64116 17.9485C4.6958 18.0031 4.75525 18.0489 4.81149 18.102C4.75606 18.155 4.6958 18.2008 4.64116 18.2554L2.76266 20.1339C-0.907561 23.8041 -0.907561 29.7554 2.76266 33.4256C6.43288 37.0958 12.3841 37.0958 16.0544 33.4256L17.9329 31.5471C17.9602 31.5198 17.9827 31.4893 18.01 31.462C18.0373 31.4893 18.0598 31.5198 18.0871 31.5471L19.9656 33.4256C23.6358 37.0958 29.5871 37.0958 33.2573 33.4256C36.9276 29.7554 36.9276 23.8041 33.2573 20.1339L31.3788 18.2554ZM18.01 23.2104C15.189 23.2104 12.9016 20.9237 12.9016 18.102C12.9016 15.2802 15.1882 12.9935 18.01 12.9935C20.8318 12.9935 23.1184 15.2802 23.1184 18.102C23.1184 20.9237 20.831 23.2104 18.01 23.2104Z" fill="#526E3E"/>
</svg>
