<?xml version="1.0" encoding="UTF-8"?>
<svg width="14px" height="14px" viewBox="0 0 14 14" version="1.1" xmlns="http://www.w3.org/2000/svg" xmlns:xlink="http://www.w3.org/1999/xlink">
    <title>Group</title>
    <defs>
        <filter id="filter-1">
            <feColorMatrix in="SourceGraphic" type="matrix" values="0 0 0 0 0.960784 0 0 0 0 0.607843 0 0 0 0 0.733333 0 0 0 1.000000 0"></feColorMatrix>
        </filter>
    </defs>
    <g id="Desktop" stroke="none" stroke-width="1" fill="none" fill-rule="evenodd">
        <g id="Product-Page" transform="translate(-740.000000, -2587.000000)">
            <g id="Group-2" transform="translate(-99.000000, 2431.500004)">
                <g id="Group" transform="translate(838.999023, 155.499996)">
                    <g>
                        <path d="M11.1690895,8.63231016 C10.9594469,8.84835708 10.8625666,9.15528745 10.9110067,9.45344815 L11.529612,13.2593822 C11.5693171,13.5057235 11.4724369,13.7385119 11.269147,13.8820117 C11.0658572,14.0255115 10.8149208,14.0390636 10.5973371,13.9186832 L7.45984421,12.1767558 C7.17158557,12.0165143 6.8269453,12.0165143 6.53868666,12.1767558 L3.40119467,13.9186832 C3.18361101,14.0390636 2.93267489,14.0255115 2.72938506,13.8820117 C2.52609523,13.7385119 2.42842076,13.5057235 2.4689199,13.2593822 L3.08752474,9.45265076 C3.1359649,9.15449006 3.0398787,8.84835691 2.82944194,8.63151276 L0.181115214,5.90501679 C0.0119717089,5.73122258 -0.0428212497,5.48886732 0.0342065418,5.25847041 C0.111234333,5.0280735 0.300230352,4.86783202 0.539254728,4.83115985 L4.13017903,4.28028007 C4.444643,4.23164958 4.71304918,4.03075 4.84804634,3.74135873 L6.42592448,0.365924505 C6.5331281,0.136324814 6.74753561,0 7.00005971,0 C7.25258381,0 7.46699071,0.137122053 7.57419433,0.365924505 L9.15207308,3.74135873 C9.28707024,4.02995276 9.55547642,4.23164958 9.86994038,4.28028007 L13.4608648,4.83115985 C13.7006833,4.86783202 13.8888853,5.02727628 13.9659131,5.25847041 C14.0429409,5.48966454 13.9865601,5.73201997 13.8174166,5.90581418 L11.1690895,8.63231016 Z" id="Vector" fill="#f59bbb" fill-rule="nonzero"></path>
                    </g>
                </g>
            </g>
        </g>
    </g>
</svg>
